<svg xmlns="http://www.w3.org/2000/svg" width="620" height="215" viewBox="0 0 620 215" role="img" aria-label="Button anatomy, end icon: container fill, label, corner radius, padding and end icon"><title>Button anatomy, end icon: container fill, label, corner radius, padding and end icon</title><rect x="0" y="0" width="620" height="215" fill="#FFFFFF"/><rect x="200" y="90" width="220" height="42" rx="4" fill="#404041"/><g fill="#FFFFFF" opacity="0.16"><rect x="200" y="90" width="24" height="42"/><rect x="396" y="90" width="24" height="42"/></g><g stroke="#9B9B9D" stroke-width="1" fill="none"><path d="M182 64 H190 V100 H200"/><path d="M182 168 H192 V122 H200"/><path d="M438 64 H354 V90"/><path d="M438 168 H426 V130 H418"/><path d="M324 188 H370 V136"/></g><g stroke="#FFFFFF" stroke-width="1" fill="none"><path d="M200 122 H212"/><path d="M354 90 V124"/><path d="M245 124 H354"/></g><g fill="#5E3097"><circle cx="200" cy="100" r="3"/><circle cx="418" cy="130" r="3"/><circle cx="370" cy="134" r="3"/></g><g fill="#FFFFFF"><circle cx="212" cy="122" r="2.5"/></g><g stroke="#FFFFFF" stroke-width="2" stroke-linecap="round" stroke-linejoin="round" fill="none"><path d="M361 111 H378"/><path d="M372 105 L379 111 L372 117"/></g><text x="239" y="117" text-anchor="start" font-family="Nunito Sans, -apple-system, Helvetica, Arial, sans-serif" font-size="15" font-weight="700" letter-spacing="0.3" fill="#FFFFFF">Add repertoire</text><text x="180" y="68" text-anchor="end" font-family="Nunito Sans, -apple-system, Helvetica, Arial, sans-serif" font-size="11.5" font-weight="600" letter-spacing="0.7" fill="#1F1F21">CONTAINER FILL</text><text x="180" y="172" text-anchor="end" font-family="Nunito Sans, -apple-system, Helvetica, Arial, sans-serif" font-size="11.5" font-weight="600" letter-spacing="0.7" fill="#1F1F21">PADDING</text><text x="442" y="68" text-anchor="start" font-family="Nunito Sans, -apple-system, Helvetica, Arial, sans-serif" font-size="11.5" font-weight="600" letter-spacing="0.7" fill="#1F1F21">LABEL</text><text x="442" y="172" text-anchor="start" font-family="Nunito Sans, -apple-system, Helvetica, Arial, sans-serif" font-size="11.5" font-weight="600" letter-spacing="0.7" fill="#1F1F21">CORNER RADIUS</text><text x="318" y="192" text-anchor="end" font-family="Nunito Sans, -apple-system, Helvetica, Arial, sans-serif" font-size="11.5" font-weight="600" letter-spacing="0.7" fill="#1F1F21">END ICON</text></svg>